<svg width="114" height="114" viewBox="0 0 114 114" fill="none" xmlns="http://www.w3.org/2000/svg">
<path d="M56.5 44.5L33 36L37.5 25L60.5 33L56.5 44.5Z" fill="#F04716"/>
<path d="M58.5 57L62.5 52L67 53H83.5L88 52L92.5 54.75L96.5 63V73.5L94.5 77.5V86.5L92.5 93L86 97.5H67.5L59.5 93.5L56.5 87.5V63L58.5 57Z" fill="#4788FF"/>
<path d="M88.5 68H84C81.5 68 79 70.5 79 73.5C79 76.5 81.5 79 84.5 79C86.9 79 88.8333 79 89.5 79C91.2558 79 93.0115 78.5433 94.5 77.5705M94.5 77.5705C96.8265 76.0501 97.5 73.2688 97.5 69V66C97.5 58 87.5 51 87.5 51M94.5 77.5705V86C94.5 92.0751 89.5751 97 83.5 97H67.5C61.4249 97 56.5 92.0751 56.5 86V69.5M62.5 51.5V40H75.5M62.5 51.5V51.5C62.5 52.3284 63.1716 53 64 53H85.5C86.6046 53 87.5 52.1046 87.5 51V51M62.5 51.5C62.5 51.5 61.8482 52.2605 60.9742 53.5M87.5 51V46M87.5 46V40H75.5M87.5 46H76.5M70.5 46H68.5M33 36.5L56.5 44.5M33 36.5C30.6667 36.8333 25.3 39.4 22.5 47L15.6995 65.4584C13.6401 71.0484 16.4048 77.2619 21.936 79.4744L39.1538 86.3615C43.5648 88.1259 48.5875 86.158 50.6258 81.8667L56.5 69.5M33 36.5L35.625 29.5M56.5 44.5L60.5 33L49 28.75M56.5 44.5L60.9742 53.5M60.9742 53.5C59.1966 56.0211 56.5 60.5239 56.5 64.6403V69.5M35.625 29.5L37.5 24.5L49 28.75M35.625 29.5L47.5 34M49 28.75L62.5 14L75.5 40M23.5 64L22.7395 65.9773C21.7701 68.4977 22.9771 71.3325 25.4659 72.3804L30.5 74.5" stroke="#36383F" stroke-width="3" stroke-linecap="round" stroke-linejoin="round"/>
</svg>
