<svg width="114" height="114" viewBox="0 0 114 114" fill="none" xmlns="http://www.w3.org/2000/svg">
<g clip-path="url(#clip0_337_16410)">
<rect x="36" y="6" width="70" height="8" fill="#DEDFE7"/>
<path d="M29 1H37V113H29V1Z" fill="#4788FF"/>
<path d="M1 1H9V113H1V1Z" fill="#4788FF"/>
<path d="M105 1H112.5V112H105V1Z" fill="#F04716"/>
<path d="M105.5 6.5V1.5H112.5V19.5M105.5 6.5H36.5M105.5 6.5V13.5M36.5 6.5V1.5H29.5V6.5M36.5 6.5V13.5M36.5 13.5V112.5H29.5V97.5M36.5 13.5H47.5M105.5 13.5V112.5H112.5V35.5M105.5 13.5H94.5M29.5 13.5V6.5M29.5 13.5H26.25M29.5 13.5V27.5M8.5 13.5V6.5M8.5 13.5H18M8.5 13.5V27.5M8.5 6.5V1.5H1.5V112.5H8.5V97.5M8.5 6.5H29.5M112.5 27.75V25.625M29.5 27.5H8.5M29.5 27.5V34.5M8.5 27.5V34.5M8.5 34.5H29.5M8.5 34.5V48.5M29.5 34.5V48.5M8.5 48.5H29.5M8.5 48.5V55.5M29.5 48.5V55.5M29.5 55.5H8.5M29.5 55.5V69.5M8.5 55.5V69.5M8.5 69.5H29.5M8.5 69.5V76.5M29.5 69.5V76.5M29.5 76.5H8.5M29.5 76.5V90.5M8.5 76.5V90.5M8.5 90.5H29.5M8.5 90.5V97.5M29.5 90.5V97.5M29.5 97.5H8.5M47.5 13.5V40M47.5 13.5H52.5M52.5 13.5V40M52.5 13.5H68.5M68.5 13.5V40M68.5 13.5H73.5M73.5 13.5V40M73.5 13.5H89.5M89.5 13.5V70M89.5 13.5H94.5M94.5 13.5V70" stroke="#36383F" stroke-width="3" stroke-linecap="round" stroke-linejoin="round"/>
<circle cx="50" cy="48" r="7.5" stroke="#36383F" stroke-width="3"/>
<circle cx="71" cy="48" r="7.5" stroke="#36383F" stroke-width="3"/>
<circle cx="92" cy="78" r="7.5" stroke="#36383F" stroke-width="3"/>
</g>
<defs>
<clipPath id="clip0_337_16410">
<rect width="114" height="114" fill="white"/>
</clipPath>
</defs>
</svg>
