<svg width="57" height="62" viewBox="0 0 57 62" fill="none" xmlns="http://www.w3.org/2000/svg">
<path fill-rule="evenodd" clip-rule="evenodd" d="M0 20.6251V41.3749C0 45.0829 1.97545 48.5077 5.17865 50.3529L23.0145 60.6274C26.1805 62.4512 30.0711 62.4579 33.2433 60.645L51.2627 50.3468C54.4831 48.5064 56.4719 45.0719 56.4719 41.3512V20.6487C56.4719 16.928 54.4831 13.4936 51.2627 11.6532L33.2433 1.35502C30.0711 -0.457926 26.1805 -0.451238 23.0145 1.37259L5.17864 11.6471C1.97545 13.4923 0 16.917 0 20.6251ZM4.4819 41.3749V20.6251C4.4819 18.5292 5.59845 16.5935 7.40896 15.5505L11.4288 13.2349V48.7651L7.40897 46.4494C5.59846 45.4065 4.4819 43.4707 4.4819 41.3749ZM20.3926 53.9288L25.2448 56.7239C27.0343 57.7548 29.2333 57.7585 31.0263 56.7338L47.2145 47.4822H20.1685C18.9309 47.4822 17.9276 46.4748 17.9276 45.2321C17.9276 43.9894 18.9309 42.982 20.1685 42.982H51.7592C51.9104 42.4591 51.99 41.9109 51.99 41.3512V24.5308H20.1685C18.9309 24.5308 17.9276 23.5234 17.9276 22.2807C17.9276 21.038 18.9309 20.0306 20.1685 20.0306H51.9575C51.761 18.1708 50.686 16.5017 49.0457 15.5643L31.0263 5.26616C29.2333 4.24145 27.0343 4.24522 25.2448 5.27608L20.3926 8.0712V18.2305C18.1649 18.2305 16.3589 20.0438 16.3589 22.2807C16.3589 24.5176 18.1649 26.331 20.3926 26.331V41.1819C18.1649 41.1819 16.3589 42.9952 16.3589 45.2321C16.3589 47.469 18.1649 49.2824 20.3926 49.2824V53.9288Z" fill="#0A4ECB"/>
</svg>
