<svg width="114" height="114" viewBox="0 0 114 114" fill="none" xmlns="http://www.w3.org/2000/svg">
<rect x="13" y="53" width="6" height="13" fill="#4788FF"/>
<rect x="18" y="47" width="6" height="25" fill="#F04716"/>
<rect x="95" y="53" width="6" height="13" fill="#4788FF"/>
<rect x="90" y="47" width="6" height="25" fill="#F04716"/>
<rect x="26" y="30" width="62" height="9" fill="#A3A6B2"/>
<path fill-rule="evenodd" clip-rule="evenodd" d="M31.5 22C30.6716 22 30 22.6716 30 23.5V29H25.5C24.6716 29 24 29.6716 24 30.5V31H15.5C13.567 31 12 32.567 12 34.5C12 36.433 13.567 38 15.5 38H24V38.5C24 39.3284 24.6716 40 25.5 40H30V55H26V49.5C26 47.0147 23.9853 45 21.5 45C19.0147 45 17 47.0147 17 49.5V51.126C16.6804 51.0438 16.3453 51 16 51C13.7909 51 12 52.7909 12 55V64C12 66.2091 13.7909 68 16 68C16.3453 68 16.6804 67.9562 17 67.874V69.5C17 71.9853 19.0147 74 21.5 74C23.9853 74 26 71.9853 26 69.5V64H30V82.8787L23.8787 89H13.5C12.6716 89 12 89.6716 12 90.5C12 91.3284 12.6716 92 13.5 92H100.5C101.328 92 102 91.3284 102 90.5C102 89.6716 101.328 89 100.5 89H90.1213L84 82.8787V64H88V69.5C88 71.9853 90.0147 74 92.5 74C94.9853 74 97 71.9853 97 69.5V67.874C97.3196 67.9562 97.6547 68 98 68C100.209 68 102 66.2091 102 64V55C102 52.7909 100.209 51 98 51C97.6547 51 97.3196 51.0438 97 51.126V49.5C97 47.0147 94.9853 45 92.5 45C90.0147 45 88 47.0147 88 49.5V55H84V40H88.5C89.3284 40 90 39.3284 90 38.5V38H98.5C100.433 38 102 36.433 102 34.5C102 32.567 100.433 31 98.5 31H90V30.5C90 29.6716 89.3284 29 88.5 29H84V23.5C84 22.6716 83.3284 22 82.5 22H75.5C74.6716 22 74 22.6716 74 23.5V29H40V23.5C40 22.6716 39.3284 22 38.5 22H31.5ZM97 55V64C97 64.5523 97.4477 65 98 65C98.5523 65 99 64.5523 99 64V55C99 54.4477 98.5523 54 98 54C97.4477 54 97 54.4477 97 55ZM94 49.5C94 48.6716 93.3284 48 92.5 48C91.6716 48 91 48.6716 91 49.5V69.5C91 70.3284 91.6716 71 92.5 71C93.3284 71 94 70.3284 94 69.5V49.5ZM17 64V55C17 54.4477 16.5523 54 16 54C15.4477 54 15 54.4477 15 55V64C15 64.5523 15.4477 65 16 65C16.5523 65 17 64.5523 17 64ZM20 69.5C20 70.3284 20.6716 71 21.5 71C22.3284 71 23 70.3284 23 69.5V49.5C23 48.6716 22.3284 48 21.5 48C20.6716 48 20 48.6716 20 49.5V69.5ZM37 29H33V25H37V29ZM15.5 34H24V35H15.5C15.2239 35 15 34.7761 15 34.5C15 34.2239 15.2239 34 15.5 34ZM87 32H27V37H87V32ZM98.5 35H90V34H98.5C98.7761 34 99 34.2239 99 34.5C99 34.7761 98.7761 35 98.5 35ZM33 55V40H37V55H33ZM40 55V40H74V55H40ZM77 55V40H81V55H77ZM26 61V58H88V61H26ZM33 89V64H37V89H33ZM40 82.8787V64H74V82.8787L67.8787 89H46.1213L40 82.8787ZM77 89V64H81V89H77ZM85.8787 89H84V87.1213L85.8787 89ZM74 87.1213V89H72.1213L74 87.1213ZM40 87.1213L41.8787 89H40V87.1213ZM30 87.1213V89H28.1213L30 87.1213ZM81 25V29H77V25H81Z" fill="#36383F"/>
</svg>
