<svg width="114" height="114" viewBox="0 0 114 114" fill="none" xmlns="http://www.w3.org/2000/svg">
<path d="M45.5 80.5L42.5 84.5L45.5 88.5H49.5V94L54 97L58.298 94V88.5H65.5V80.5H58.298V75L54 72L49.5 75V80.5H45.5Z" fill="#DEDFE7"/>
<path d="M79.5 80.5V88.5H86V93.5L90.5 97L95 93.5V88.5H99L102 84.5L98.5 80.5H95V75.5L90.5 72L86 75.5V80.5H79.5Z" fill="#DEDFE7"/>
<path d="M21.9999 44.5001L15.4999 47.0001C13.8999 41.0001 19.4999 32.5001 22.4999 29.0001C22.4999 26.5001 24.4999 23.0001 27.9999 22.0001C31.4999 15.0001 37.4999 14.0001 43.4999 14.5001C48.9999 10.5001 55.9999 11.5001 60.9999 14.5001C70.5999 12.9001 75.3333 18.8334 76.4999 22.0001C80.8999 23.2001 81.9999 26.1667 81.9999 27.5001L83.4999 32.0001L87.9999 41.0001L89.4999 46.5001L82.4999 44.5001L79.4999 38.5001H24.4999L21.9999 44.5001Z" fill="#F04716"/>
<path d="M36.5 80.5V102.5H69.5L65 96.5V88.5H58.5L57.5 94.5L55 96.5H53L49.5 93L49 88.5H46.5L42.5 86.5V83L36.5 80.5Z" fill="#4788FF"/>
<path d="M22.5 28.5L16.5 38.5H87.5L82 28.5H22.5Z" fill="#4788FF"/>
<path d="M35.6146 52.0117C35.6146 50.9821 36.4524 50.1445 37.4818 50.1445C38.5114 50.1445 39.3491 50.9823 39.3491 52.0117C39.3491 52.7721 39.9656 53.3886 40.7261 53.3886C41.4865 53.3886 42.103 52.7721 42.103 52.0117C42.103 49.4636 40.0299 47.3906 37.4818 47.3906C34.9337 47.3906 32.8607 49.4638 32.8607 52.0117C32.8607 52.7721 33.4772 53.3886 34.2377 53.3886C34.9981 53.3886 35.6146 52.7721 35.6146 52.0117V52.0117Z" fill="#36383F"/>
<path d="M64.6144 52.0117C64.6144 50.9821 65.4521 50.1445 66.4815 50.1445C67.5111 50.1445 68.3489 50.9823 68.3489 52.0117C68.3489 52.7721 68.9654 53.3886 69.7258 53.3886C70.4863 53.3886 71.1028 52.7721 71.1028 52.0117C71.1028 49.4636 69.0296 47.3906 66.4815 47.3906C63.9334 47.3906 61.8605 49.4638 61.8605 52.0117C61.8605 52.7721 62.477 53.3886 63.2374 53.3886C63.9979 53.3886 64.6144 52.7721 64.6144 52.0117Z" fill="#36383F"/>
<path d="M20.6714 62.9277C20.7086 62.9277 20.7466 62.9262 20.7841 62.9257C21.7705 66.0804 23.2375 69.0814 25.1578 71.8415C25.592 72.4656 26.45 72.6198 27.0746 72.1854C27.6988 71.751 27.8526 70.8929 27.4184 70.2687C25.463 67.4581 24.0214 64.3739 23.1267 61.1268C23.1251 61.1209 23.1245 61.1149 23.1229 61.109C21.1076 53.7811 21.9894 46.0516 25.2722 39.5602H78.9736C84.9279 51.3352 82.4314 65.5792 73.0885 74.6735C72.8223 74.6441 72.4707 74.6204 72.1448 74.6204C72.1432 74.6204 72.1417 74.6204 72.1402 74.6204C68.8464 74.6226 65.8609 76.5204 64.4928 79.5393H59.7194V76.8131C59.7194 73.6154 57.1235 70.9829 53.8892 70.9829C50.6743 70.9829 48.059 73.5983 48.059 76.8131V79.5393H46.2137C44.679 79.5393 43.1768 80.2435 42.2009 81.5112C37.9229 80.0148 34.0082 77.5447 30.8076 74.329C30.2709 73.79 29.3992 73.7882 28.8602 74.3246C28.3212 74.8611 28.3191 75.7328 28.8558 76.2718C30.3374 77.7602 31.96 79.0992 33.6902 80.2747C32.6079 81.086 31.2063 82.3288 29.8132 84.1135C27.2398 87.4105 24.1719 93.298 24.1719 102.622C24.1719 103.383 24.7885 103.999 25.5489 103.999H72.1288H72.1294C72.1345 103.999 72.1395 104 72.1446 104C76.78 104 80.5512 100.229 80.5512 95.5931V89.6705H84.5701V92.3967C84.5701 95.6114 87.1855 98.2269 90.4003 98.2269C93.6152 98.2269 96.2305 95.6114 96.2305 92.3967V89.6705H98.0758C100.869 89.6705 103.141 87.3982 103.141 84.605C103.141 81.8118 100.869 79.5394 98.0758 79.5394H96.2305V76.8133C96.2305 73.5985 93.615 70.983 90.4003 70.983C87.1855 70.983 84.5701 73.5985 84.5701 76.8133V79.5394H79.7906C79.0145 77.8451 77.6928 76.4519 76.0502 75.5863C78.5822 72.8965 80.6243 69.8299 82.1316 66.4424C82.6442 65.2905 83.0848 64.117 83.4584 62.9259C83.497 62.9262 83.5359 62.9279 83.5743 62.9279C88.9851 62.9279 93.387 58.5258 93.387 53.1152C93.387 50.8641 92.6232 48.7891 91.3438 47.1318C90.847 43.8633 89.9477 40.673 88.6604 37.6448C88.6604 37.6446 88.6602 37.6444 88.6602 37.6443C87.2577 34.3421 85.4098 31.2449 83.1659 28.4295C83.1085 25.3145 81.3129 21.9173 77.2856 20.7696C75.7818 17.9228 73.3861 15.6055 70.4798 14.2021C67.5748 12.7993 64.2719 12.3636 61.1084 12.9549C58.5157 11.0448 55.3502 10 52.1226 10C52.1219 10 52.1208 10 52.1199 10C48.8995 10.0006 45.7411 11.0413 43.1478 12.9469C36.6336 11.6303 29.9737 14.8364 26.949 20.7724C22.9296 21.922 21.1355 25.3167 21.0771 28.4291C18.8393 31.2374 16.9918 34.3348 15.5843 37.6444C15.5843 37.6444 15.5843 37.6446 15.5842 37.6448C14.2981 40.673 13.3996 43.8628 12.903 47.13C11.6228 48.7877 10.8586 50.8632 10.8586 53.115C10.8586 58.5258 15.2605 62.9277 20.6714 62.9277V62.9277ZM63.7698 82.2933C63.7054 83.0318 63.7551 83.9405 63.7381 86.9166H59.7194V82.2933H63.7698ZM53.8892 95.473C52.1929 95.473 50.8129 94.0929 50.8129 92.3967C50.8129 90.7967 50.8129 78.9103 50.8129 76.8133C50.8129 75.1141 52.1957 73.737 53.889 73.737C55.5951 73.737 56.9653 75.1312 56.9653 76.8133V92.3967C56.9655 94.0931 55.585 95.473 53.8892 95.473ZM48.0588 82.2933V86.9166H46.2135C44.9388 86.9166 43.9018 85.8797 43.9018 84.605C43.9018 83.3211 44.9507 82.2933 46.2135 82.2933H48.0588ZM26.9505 101.246C27.1708 95.1405 28.8655 89.8695 31.8853 85.9357C32.94 84.5618 34.0021 83.5522 34.8711 82.8474C34.8711 84.5303 34.8712 98.9117 34.8712 101.246H26.9505ZM37.6251 82.5742C38.7794 83.1417 40.0473 83.6725 41.1757 84.0726C40.8593 87.055 43.2071 89.6705 46.2135 89.6705H48.0588V92.3967C48.0588 95.6114 50.6743 98.2269 53.889 98.2269C57.0703 98.2269 59.7192 95.6419 59.7192 92.3967V89.6705H63.7379V95.5934C63.7379 97.3497 64.2898 99.0042 65.2219 100.355C65.4374 100.668 65.6724 100.966 65.927 101.246H37.6253C37.6253 99.7199 37.6251 84.9114 37.6251 82.5742V82.5742ZM98.076 82.2933C99.3505 82.2933 100.388 83.3303 100.388 84.605C100.388 85.8797 99.3507 86.9166 98.076 86.9166H96.2307V82.2933H98.076ZM87.324 76.8133C87.324 75.117 88.704 73.737 90.4003 73.737C92.0965 73.737 93.4766 75.117 93.4766 76.8133V92.3967C93.4766 94.0929 92.0965 95.473 90.4003 95.473C88.704 95.473 87.324 94.0929 87.324 92.3967C87.324 90.7967 87.324 78.9103 87.324 76.8133V76.8133ZM80.5196 82.2933H84.5701V86.9166H80.5514C80.5338 83.803 80.5837 83.0286 80.5196 82.2933ZM77.7971 83.0198C77.7971 83.0222 77.7973 83.0246 77.7973 83.0272V95.5934C77.7973 98.7105 75.2615 101.246 72.1446 101.246C72.1408 101.246 72.1367 101.246 72.1329 101.246C72.1325 101.246 72.1321 101.246 72.1318 101.246C69.0221 101.239 66.492 98.7035 66.492 95.5936C66.492 92.6978 66.492 85.6828 66.492 83.0273C66.492 79.7906 69.2106 77.2216 72.4296 77.3818C75.4008 77.5311 77.7929 79.9911 77.7971 83.0198V83.0198ZM16.2513 44.3528C16.6492 42.721 17.1583 41.1191 17.775 39.5602H22.2181C21.7413 40.6102 21.1891 42.0243 20.7889 43.303C19.189 43.2912 17.6527 43.6459 16.2513 44.3528V44.3528ZM13.6125 53.115C13.6125 49.4763 16.3911 46.4156 20.0512 46.0857C19.0769 50.5491 19.0122 55.3882 20.0495 60.1466C16.4474 59.8306 13.6125 56.7977 13.6125 53.115V53.115ZM87.9948 44.3531C86.6678 43.6825 85.0772 43.2844 83.4568 43.303C83.0877 42.1243 82.5605 40.7349 82.0275 39.5602H86.4701C87.0873 41.1191 87.5966 42.7208 87.9948 44.3531V44.3531ZM84.1966 60.1466C85.2281 55.4237 85.1774 50.5874 84.1944 46.0859C87.9194 46.4206 90.6331 49.545 90.6331 53.1152C90.6331 56.7975 87.7984 59.8305 84.1966 60.1466ZM23.1181 30.2856H62.3152C63.0756 30.2856 63.6922 29.6691 63.6922 28.9087C63.6922 28.1482 63.0756 27.5317 62.3152 27.5317H23.9173C24.2327 25.7367 25.4182 23.9551 28.0133 23.3399C28.112 23.3164 28.1759 23.3027 28.2086 23.2951C28.979 23.1225 29.2015 22.4111 29.2345 22.3656C31.6925 17.1425 37.5411 14.3677 43.1414 15.7678C43.5602 15.8724 44.0113 15.7685 44.3472 15.4977C46.5414 13.729 49.3019 12.7545 52.1204 12.7539H52.1226C54.9402 12.7539 57.7004 13.7273 59.905 15.5032C60.2351 15.7698 60.6697 15.8695 61.0829 15.7729C63.8302 15.1322 66.742 15.4549 69.2822 16.6815C71.8224 17.9083 73.8858 19.9881 75.086 22.5251C75.3946 23.1984 76.0429 23.2916 76.0612 23.3004C78.5535 23.8521 79.9591 25.4389 80.3261 27.5316H67.823C67.0626 27.5316 66.4461 28.1481 66.4461 28.9085C66.4461 29.6689 67.0626 30.2855 67.823 30.2855H81.1249C82.7262 32.3147 84.1069 34.4993 85.2468 36.8062C81.4455 36.8062 21.3815 36.8062 18.9985 36.8062C20.1406 34.4949 21.5207 32.3103 23.1181 30.2856V30.2856Z" fill="#36383F"/>
</svg>
